<svg width="14" height="13" viewBox="0 0 14 13" fill="none" xmlns="http://www.w3.org/2000/svg">
<path d="M13.9922 3.91162C13.9922 8.28662 7.50531 11.8279 7.22906 11.9741C7.15625 12.0133 7.07486 12.0338 6.99219 12.0338C6.90951 12.0338 6.82812 12.0133 6.75531 11.9741C6.47906 11.8279 -0.0078125 8.28662 -0.0078125 3.91162C-0.00665454 2.88426 0.401975 1.89931 1.12843 1.17286C1.85488 0.446409 2.83983 0.0377791 3.86719 0.0366211C5.15781 0.0366211 6.28781 0.591621 6.99219 1.52975C7.69656 0.591621 8.82656 0.0366211 10.1172 0.0366211C11.1445 0.0377791 12.1295 0.446409 12.8559 1.17286C13.5824 1.89931 13.991 2.88426 13.9922 3.91162Z" fill="#F0E8C2"/>
</svg>
